<?xml version="1.0" encoding="utf-8"?>
<!-- Generator: Adobe Illustrator 22.0.1, SVG Export Plug-In . SVG Version: 6.00 Build 0)  -->
<svg version="1.1" id="Layer_1" xmlns="http://www.w3.org/2000/svg" xmlns:xlink="http://www.w3.org/1999/xlink" x="0px" y="0px"
	 viewBox="0 0 512 512" style="enable-background:new 0 0 512 512;" xml:space="preserve">
<style type="text/css">
	.st0{fill:#FFCC00;}
	.st1{fill:#FFFFFF;}
</style>
<circle cx="256" cy="256" r="256"/>
<path class="st0" d="M109.1,427.6C146,386.3,199.9,362,256,362s110,24.3,146.9,65.6C363.3,461.5,312,482,256,482
	S148.7,461.5,109.1,427.6z"/>
<path class="st1" d="M90.7,241c3.1-34.5,16.8-66,37.9-91.2l20.4,20.4l21.2-21.2l-20.4-20.4c25.2-21,56.7-34.8,91.2-37.9V120h30V90.7
	c34.5,3.1,66,16.8,91.2,37.9l-20.4,20.4l21.2,21.2l20.4-20.4c21,25.2,34.8,56.7,37.9,91.2H392v30h29.3
	c-3.3,36.1-18.2,70.4-42.4,97.1C341.5,344,298.5,332,256,332c-42.4,0-85.4,12-122.9,36.1C108.9,341.4,94,307.1,90.7,271H120v-30
	H90.7z"/>
<path class="st0" d="M256,30c124.6,0,226,101.4,226,226c0,57.8-21.8,110.6-57.7,150.6c-6.6-7.3-13.7-14.2-21.3-20.6
	c31.3-35.5,48.9-82,48.9-130c0-107.6-88.4-196-196-196C148.4,60,60,148.4,60,256c0,48,17.7,94.5,48.9,130
	c-7.5,6.4-14.7,13.3-21.3,20.6C51.8,366.6,30,313.8,30,256C30,131.4,131.4,30,256,30z"/>
<path d="M211,392h90v30h-90V392z"/>
<path d="M212.3,245c-3.7,15.4,0.7,31.3,11.9,42.5c17.5,17.5,46.1,17.5,63.6,0c11.2-11.2,15.6-27.1,11.9-42.5l-0.2-0.9L256,128
	l-43.5,116.1L212.3,245z M270.7,252.8c0.9,4.9-0.6,9.9-4.1,13.4c-5.8,5.8-15.4,5.8-21.2,0c-3.6-3.6-5.1-8.5-4.1-13.4l14.7-39.3
	L270.7,252.8z"/>
</svg>
