<?xml version="1.0" encoding="utf-8"?>
<!-- Generator: Adobe Illustrator 16.0.0, SVG Export Plug-In . SVG Version: 6.00 Build 0)  -->
<!DOCTYPE svg PUBLIC "-//W3C//DTD SVG 1.1//EN" "http://www.w3.org/Graphics/SVG/1.1/DTD/svg11.dtd">
<svg version="1.1" id="Capa_1" xmlns="http://www.w3.org/2000/svg" xmlns:xlink="http://www.w3.org/1999/xlink" x="0px" y="0px"
	 width="74.571px" height="36.93px" viewBox="0 0 74.571 36.93" enable-background="new 0 0 74.571 36.93" xml:space="preserve">
<g>
	<path fill-rule="evenodd" clip-rule="evenodd" fill="#FFFDFD" d="M65.805,7.294l-5.13,5.525V7.778
		C62.461,7.068,64.185,7.181,65.805,7.294L65.805,7.294z M60.675,29.124v-5.142c2.555,0.872,5.19,1.151,6.943-0.691
		c1.011-1.917-1.559-1.943-4.616-2.469c-0.849-0.146-1.657-0.357-2.327-0.574V17.99l3.177-3.116
		c2.559,1.007,5.785,1.349,7.673,2.046c4.635,2.635,2.806,7.595,2.046,8.463C70.052,29.74,64.713,29.83,60.675,29.124z
		 M60.675,12.819l-4.542,4.891c-1.023-1.875-0.883-5.658,1.814-8.137c0.921-0.875,1.832-1.438,2.728-1.795V12.819L60.675,12.819z
		 M60.675,17.99v2.257c-0.77-0.249-1.356-0.505-1.612-0.676L60.675,17.99L60.675,17.99z M60.675,23.981v5.142
		c-2.383-0.417-4.312-1.111-5.146-1.369l0.046-6.045C56.978,22.384,58.805,23.342,60.675,23.981L60.675,23.981z M22.919,7.399
		v10.909h6.583l-0.094-4.138c0.532-1.458,5.041-2.681,5.694,0.805l0.009,3.289h6.534v-3.667c0.611-1.489,3.901-3.447,5.641,0.188
		v3.384h6.675l-0.094-4.606c0.235-3.729-6.393-10.89-12.974-3.008c-0.486-1.332-5.907-6.565-11.47-0.611V7.452L22.919,7.399
		L22.919,7.399z M29.612,29.311l-0.047-7.615h-6.581v7.662L29.612,29.311L29.612,29.311z M41.834,21.602h-6.582v7.756h6.582V21.602
		L41.834,21.602z M54.056,21.789l-6.581,0.047v7.616h6.675L54.056,21.789L54.056,21.789z M20.434,0v18.327h-6.637V13.84
		c-0.343-1.434-6.855-3.895-6.918,4.674H0.055C-0.6,14.869,4.635,2.997,13.796,9.26V0H20.434L20.434,0z M13.703,27.582v1.776
		l6.824,0.094v-7.572h-6.824v1.402c-1.028,1.247-4.58,2.586-6.45-1.309H0.148C1.582,25.338,6.38,32.817,13.703,27.582z"/>
	<path fill-rule="evenodd" clip-rule="evenodd" fill="#FFFDFD" d="M54.616,35.131v-0.842c0.093-0.011,0.18-0.03,0.26-0.055
		c0.145-0.046,0.265-0.112,0.361-0.196c0.097-0.084,0.169-0.185,0.218-0.301c0.048-0.117,0.072-0.244,0.072-0.385
		c0-0.286-0.093-0.501-0.281-0.646c-0.149-0.116-0.36-0.186-0.63-0.209v-0.581c0.23,0.011,0.436,0.042,0.612,0.093
		c0.231,0.065,0.423,0.159,0.574,0.28s0.263,0.268,0.336,0.438c0.072,0.171,0.108,0.362,0.108,0.574c0,0.173-0.027,0.335-0.08,0.487
		s-0.131,0.288-0.233,0.409c-0.102,0.122-0.228,0.226-0.375,0.313c-0.147,0.088-0.314,0.155-0.502,0.2
		c0.093,0.056,0.172,0.133,0.238,0.232l1.397,1.933h-0.657c-0.131,0-0.227-0.052-0.286-0.155L54.616,35.131L54.616,35.131z
		 M62.109,36.276l-0.004,0.599h-3.076V31.91h3.076v0.598H59.77v1.573h1.88v0.578h-1.88v1.617H62.109z M54.616,31.916v0.581
		c-0.068-0.006-0.14-0.009-0.216-0.009h-0.695v1.814h0.671c0.084,0,0.165-0.004,0.24-0.014v0.842l-0.095-0.134
		c-0.04-0.058-0.082-0.099-0.128-0.123c-0.046-0.024-0.115-0.036-0.207-0.036h-0.481v2.036H52.97V31.91H54.4
		C54.475,31.91,54.546,31.912,54.616,31.916L54.616,31.916z M48.302,35.55v-0.525h0.893L48.458,33.1
		c-0.052-0.128-0.104-0.29-0.156-0.485V31.91h0.37l1.978,4.964h-0.566c-0.065,0-0.118-0.016-0.159-0.048
		c-0.042-0.032-0.072-0.074-0.09-0.125l-0.439-1.151H48.302z M48.302,31.91v0.704l-0.003-0.013c-0.025,0.1-0.051,0.191-0.076,0.277
		c-0.027,0.085-0.054,0.161-0.079,0.228l-0.733,1.918h0.892v0.525h-1.096l-0.438,1.151c-0.017,0.044-0.046,0.083-0.09,0.119
		c-0.044,0.035-0.097,0.054-0.159,0.054h-0.567l1.979-4.964H48.302L48.302,31.91z M21.472,36.926v-0.636h0.001
		c0.26,0,0.497-0.044,0.708-0.13c0.211-0.086,0.391-0.211,0.539-0.375c0.149-0.164,0.263-0.363,0.344-0.597
		c0.081-0.234,0.121-0.499,0.121-0.796c0-0.295-0.04-0.56-0.121-0.795c-0.081-0.235-0.195-0.435-0.344-0.598
		c-0.148-0.164-0.328-0.29-0.539-0.377c-0.211-0.087-0.447-0.131-0.708-0.131h-0.001v-0.636h0.001c0.369,0,0.704,0.062,1.006,0.188
		c0.302,0.126,0.562,0.301,0.778,0.526c0.217,0.225,0.385,0.493,0.504,0.804c0.118,0.311,0.177,0.651,0.177,1.02
		c0,0.371-0.059,0.711-0.177,1.021c-0.119,0.31-0.287,0.577-0.504,0.803c-0.216,0.224-0.476,0.399-0.778,0.524
		c-0.302,0.124-0.637,0.187-1.006,0.187H21.472L21.472,36.926z M27.301,32.508v1.663h1.992v0.598h-1.992v2.105h-0.739V31.91h3.076
		v0.598H27.301L27.301,32.508z M35.557,32.525H33.98v4.349h-0.733v-4.349h-1.583V31.91h3.892V32.525L35.557,32.525z M44.455,31.91
		l-1.549,4.964h-0.664l-1.21-3.682c-0.027-0.074-0.052-0.163-0.072-0.266c-0.025,0.106-0.05,0.194-0.072,0.266l-1.224,3.682h-0.66
		l-1.549-4.964h0.616c0.064,0,0.118,0.015,0.162,0.046c0.044,0.031,0.072,0.073,0.087,0.127l0.978,3.322
		c0.019,0.064,0.036,0.135,0.051,0.21c0.015,0.076,0.03,0.156,0.047,0.239c0.016-0.083,0.032-0.163,0.05-0.239
		c0.018-0.076,0.037-0.146,0.06-0.21l1.12-3.322c0.015-0.046,0.044-0.087,0.089-0.122c0.046-0.035,0.099-0.052,0.16-0.052h0.212
		c0.064,0,0.117,0.016,0.158,0.049c0.041,0.032,0.071,0.074,0.09,0.125l1.117,3.322c0.041,0.127,0.078,0.271,0.11,0.432
		c0.027-0.158,0.058-0.303,0.09-0.432l0.981-3.322c0.012-0.046,0.04-0.087,0.087-0.122c0.046-0.035,0.101-0.052,0.162-0.052H44.455z
		 M16.419,32.719c-0.023,0.039-0.047,0.068-0.073,0.086c-0.025,0.019-0.057,0.027-0.097,0.027c-0.041,0-0.088-0.019-0.142-0.057
		c-0.053-0.039-0.119-0.081-0.198-0.128c-0.08-0.047-0.176-0.09-0.286-0.127c-0.111-0.038-0.244-0.057-0.398-0.057
		c-0.145,0-0.272,0.019-0.381,0.057c-0.11,0.038-0.202,0.09-0.275,0.155c-0.074,0.066-0.129,0.143-0.167,0.232
		c-0.038,0.088-0.058,0.185-0.058,0.289c0,0.134,0.035,0.245,0.103,0.332c0.068,0.088,0.157,0.163,0.267,0.225
		c0.111,0.062,0.236,0.116,0.377,0.163c0.141,0.045,0.285,0.093,0.432,0.143s0.291,0.107,0.432,0.172
		c0.141,0.064,0.266,0.145,0.377,0.243c0.11,0.098,0.2,0.218,0.268,0.359c0.068,0.142,0.102,0.315,0.102,0.521
		c0,0.219-0.037,0.424-0.112,0.615s-0.185,0.358-0.327,0.501c-0.143,0.143-0.318,0.254-0.526,0.336
		c-0.209,0.082-0.446,0.123-0.711,0.123c-0.16,0-0.313-0.016-0.464-0.047c-0.149-0.032-0.292-0.076-0.425-0.132
		c-0.134-0.057-0.258-0.125-0.375-0.204c-0.116-0.079-0.221-0.168-0.313-0.267l0.211-0.353c0.021-0.028,0.046-0.051,0.075-0.069
		c0.029-0.018,0.062-0.027,0.098-0.027c0.048,0,0.105,0.025,0.168,0.076c0.063,0.05,0.142,0.106,0.235,0.167
		c0.093,0.061,0.205,0.118,0.335,0.168s0.288,0.076,0.475,0.076c0.152,0,0.288-0.021,0.408-0.061
		c0.12-0.041,0.221-0.098,0.303-0.173c0.082-0.075,0.144-0.165,0.188-0.271s0.066-0.224,0.066-0.353c0-0.145-0.034-0.264-0.1-0.356
		c-0.067-0.092-0.156-0.169-0.266-0.231c-0.111-0.062-0.237-0.115-0.377-0.159c-0.14-0.044-0.284-0.09-0.432-0.137
		c-0.148-0.048-0.292-0.102-0.432-0.164c-0.141-0.063-0.266-0.144-0.377-0.244c-0.11-0.101-0.199-0.226-0.266-0.377
		c-0.066-0.151-0.1-0.336-0.1-0.558c0-0.177,0.034-0.349,0.104-0.515c0.069-0.166,0.17-0.313,0.303-0.441s0.295-0.23,0.489-0.308
		c0.193-0.077,0.415-0.115,0.664-0.115c0.279,0,0.536,0.044,0.77,0.132c0.234,0.089,0.437,0.217,0.61,0.383L16.419,32.719
		L16.419,32.719z M21.472,31.855v0.636c-0.26,0-0.495,0.044-0.705,0.131c-0.21,0.088-0.392,0.213-0.542,0.377
		c-0.149,0.163-0.265,0.363-0.345,0.598c-0.081,0.235-0.121,0.5-0.121,0.795c0,0.298,0.041,0.563,0.121,0.796
		c0.081,0.234,0.196,0.434,0.345,0.597c0.15,0.164,0.331,0.288,0.542,0.375c0.21,0.086,0.445,0.13,0.705,0.13v0.636
		c-0.366,0-0.7-0.063-1.002-0.187c-0.303-0.125-0.562-0.3-0.777-0.524c-0.216-0.226-0.384-0.493-0.504-0.803
		c-0.12-0.31-0.179-0.65-0.179-1.021c0-0.368,0.06-0.708,0.179-1.02c0.12-0.311,0.288-0.58,0.504-0.804
		c0.215-0.225,0.475-0.4,0.777-0.526C20.772,31.917,21.106,31.855,21.472,31.855z"/>
</g>
</svg>
