<?xml version="1.0" standalone="no"?>
<!DOCTYPE svg PUBLIC "-//W3C//DTD SVG 20010904//EN"
 "http://www.w3.org/TR/2001/REC-SVG-20010904/DTD/svg10.dtd">
<svg version="1.0" xmlns="http://www.w3.org/2000/svg"
 width="1200.000000pt" height="1200.000000pt" viewBox="0 0 1200.000000 1200.000000"
 preserveAspectRatio="xMidYMid meet">
<metadata>
Created by potrace 1.11, written by Peter Selinger 2001-2013
</metadata>
<g transform="translate(0.000000,1200.000000) scale(0.100000,-0.100000)"
fill="#000000" stroke="none">
<path d="M2219 8438 c-1 -293 -1 -537 0 -542 1 -5 2 -77 1 -160 -1 -83 -1
-175 0 -205 l1 -54 -35 26 c-19 15 -38 27 -41 27 -4 0 -19 8 -33 19 -84 59
-345 171 -434 185 -19 3 -41 8 -49 10 -58 20 -288 28 -384 13 -78 -12 -161
-36 -221 -62 -30 -13 -55 -24 -57 -23 -6 3 -95 -48 -176 -102 -105 -69 -361
-317 -361 -349 0 -3 -10 -17 -23 -31 -28 -32 -97 -137 -97 -149 0 -5 -4 -11
-9 -13 -5 -1 -38 -59 -73 -128 -78 -152 -163 -375 -183 -480 -2 -8 -8 -33 -13
-55 -6 -22 -14 -56 -17 -75 -9 -49 -16 -266 -9 -283 4 -12 87 -14 550 -15 405
0 546 3 549 11 2 7 6 59 9 117 5 102 11 158 21 210 3 14 8 36 10 50 11 56 14
69 40 145 25 75 77 183 107 221 38 49 129 133 168 157 52 30 119 56 170 65 44
8 207 7 240 -1 14 -4 41 -10 61 -15 20 -5 51 -17 69 -26 18 -9 39 -16 47 -16
7 0 13 -3 13 -8 0 -4 12 -13 28 -19 15 -7 43 -27 63 -45 72 -66 69 -44 69
-449 l1 -366 532 1 532 1 2 1473 1 1472 -534 0 -534 0 -1 -532z"/>
<path d="M7506 7843 c-1 -2 -18 -5 -37 -7 -51 -7 -134 -23 -134 -26 0 -1 -7
-3 -15 -5 -53 -11 -280 -113 -300 -135 -3 -3 -25 -18 -50 -35 -80 -52 -153
-115 -271 -236 l-117 -118 -36 54 c-62 93 -243 260 -336 307 -14 7 -27 16 -30
19 -6 7 -164 82 -205 97 -41 15 -127 37 -195 50 -85 16 -315 5 -390 -18 -19
-6 -42 -13 -51 -15 -30 -6 -154 -58 -199 -83 -99 -54 -211 -137 -302 -222 -53
-50 -98 -87 -101 -83 -2 5 -3 91 -3 191 1 101 -3 186 -7 189 -6 4 -842 15
-947 13 -8 0 -32 0 -52 0 -34 1 -38 -2 -38 -25 -4 -192 0 -1716 3 -1722 3 -4
241 -8 529 -8 l523 0 -1 115 c-1 63 -3 217 -5 341 l-4 226 36 44 c44 53 123
102 216 134 207 72 422 40 538 -80 53 -55 57 -61 84 -119 40 -86 39 -81 40
-412 l1 -242 525 1 c473 0 525 2 526 16 0 9 0 140 0 291 0 256 2 278 21 318
22 46 121 150 166 173 15 8 29 16 32 20 27 29 188 75 257 73 83 -3 167 -29
222 -69 45 -32 141 -140 174 -196 l37 -64 0 -272 0 -273 33 -1 c40 -1 1006 -1
1027 0 12 1 15 15 13 78 -4 122 -11 464 -13 619 -3 253 -60 414 -223 634 -55
74 -204 219 -275 266 -31 22 -59 41 -62 44 -18 18 -230 113 -230 103 0 -3 -6
-1 -12 5 -12 9 -78 25 -163 38 -40 6 -194 12 -199 7z"/>
<path d="M10140 7807 c-3 -3 -34 -8 -70 -11 -173 -18 -375 -92 -528 -194 -30
-20 -71 -48 -91 -61 -52 -35 -277 -263 -285 -289 -4 -12 -12 -22 -17 -22 -5 0
-9 -5 -9 -12 0 -6 -6 -19 -14 -27 -20 -22 -106 -195 -106 -213 0 -8 -3 -18 -7
-22 -4 -3 -8 -12 -9 -19 -2 -7 -12 -44 -23 -83 -24 -86 -29 -112 -36 -200 -12
-137 -2 -274 24 -362 5 -18 10 -35 10 -37 0 -3 7 -27 17 -53 30 -82 34 -82
102 -11 33 35 69 74 80 87 11 13 69 75 129 139 59 63 124 132 143 153 19 21
82 88 138 149 57 60 113 121 124 133 10 13 66 73 123 133 57 61 118 126 135
145 81 88 240 259 286 308 28 29 82 87 120 129 38 42 85 92 104 113 91 95 103
110 97 116 -7 7 -430 18 -437 11z"/>
<path d="M9974 6283 c-164 -162 -338 -332 -385 -378 l-86 -83 61 -31 c59 -29
296 -114 296 -106 0 2 19 -3 42 -11 23 -8 55 -17 72 -20 17 -2 39 -7 48 -10
28 -8 147 -30 218 -40 25 -3 54 -8 65 -9 11 -2 67 -11 124 -19 309 -48 433
-94 472 -176 49 -103 -21 -213 -201 -312 -152 -83 -396 -105 -630 -58 -30 6
-66 13 -80 16 -14 3 -38 9 -55 14 -16 6 -66 21 -110 34 -79 24 -201 68 -240
86 -11 5 -47 20 -80 34 -33 13 -100 43 -150 67 -49 23 -92 43 -95 44 -3 0 -72
33 -153 73 -81 40 -151 72 -156 72 -4 0 -8 -102 -10 -227 -1 -126 -3 -336 -4
-468 -2 -132 -1 -247 1 -256 2 -10 43 -28 120 -53 64 -20 124 -39 132 -40 8
-2 22 -6 30 -9 22 -10 270 -75 307 -82 18 -3 44 -10 58 -15 14 -5 29 -9 33 -9
4 1 9 0 12 -1 3 -1 14 -3 25 -5 11 -1 36 -5 55 -9 94 -18 214 -36 270 -42 19
-2 60 -7 90 -10 84 -8 447 -9 520 0 87 10 161 22 265 42 167 33 386 120 550
219 143 87 319 240 430 376 32 39 81 139 105 214 12 39 25 77 27 85 3 8 7 22
8 30 1 8 6 29 10 45 4 17 8 89 10 160 7 280 -79 494 -273 677 -158 148 -243
184 -654 272 -92 20 -178 40 -191 45 -14 6 -27 8 -30 5 -2 -2 -16 0 -31 6 -15
5 -41 12 -59 15 -18 3 -59 13 -92 22 -33 8 -65 16 -72 17 -7 1 -16 5 -19 9 -4
4 -15 7 -25 7 -9 0 -75 19 -147 43 l-129 43 -299 -293z"/>
<path d="M5676 5480 c-3 -8 -4 -288 -4 -622 l1 -608 63 0 c83 -1 855 -1 937 0
l62 0 -2 558 c-1 306 -2 586 -3 622 l0 65 -525 0 c-459 0 -526 -2 -529 -15z"/>
<path d="M3705 5479 c-8 -12 -10 -1218 -2 -1225 5 -5 196 -5 757 -1 l305 2 -2
390 c-1 215 -2 419 -2 455 0 36 0 72 0 80 0 8 -1 80 -2 160 l-2 145 -91 -2
c-50 -2 -109 -3 -131 -3 -22 0 -69 1 -105 1 -36 0 -69 0 -75 -1 -5 -1 -14 -2
-19 -1 -4 1 -27 2 -50 1 -22 0 -50 0 -61 0 -19 0 -138 -1 -160 -1 -5 0 -48 1
-95 2 -47 2 -90 0 -96 -3 -5 -4 -15 -3 -22 1 -7 4 -35 5 -62 1 -27 -3 -56 -3
-64 2 -9 5 -17 4 -21 -3z"/>
<path d="M8226 5463 c-1 -1 -133 -3 -293 -4 -259 -2 -292 -4 -296 -18 -2 -9
-1 -25 3 -35 3 -10 3 -41 0 -68 -4 -27 -3 -51 1 -53 4 -3 4 -20 0 -37 -4 -18
-5 -44 -4 -58 5 -38 3 -122 -2 -131 -3 -4 -1 -10 4 -13 5 -3 6 -21 2 -38 -4
-18 -5 -44 -4 -58 5 -38 3 -122 -2 -131 -3 -4 -1 -10 4 -13 5 -3 6 -21 2 -38
-4 -18 -5 -44 -4 -58 5 -38 3 -122 -2 -131 -3 -4 -1 -10 4 -13 5 -3 6 -21 2
-38 -4 -18 -5 -44 -4 -58 2 -14 3 -47 2 -75 0 -27 0 -57 0 -65 2 -31 3 -45 1
-55 -9 -43 -32 -42 535 -42 380 0 535 3 536 11 5 55 -11 1209 -17 1215 -5 5
-463 9 -468 4z"/>
<path d="M2205 5338 l1 -111 -32 -31 c-70 -69 -161 -120 -267 -150 -119 -34
-269 -29 -370 12 -16 7 -30 12 -33 12 -3 0 -29 16 -59 35 -94 60 -180 154
-244 268 -18 31 -38 58 -44 58 -57 7 -1127 2 -1127 -5 0 -17 128 -263 179
-345 71 -113 166 -245 204 -283 9 -10 17 -21 17 -25 0 -19 269 -270 331 -308
9 -5 36 -23 60 -39 102 -68 277 -142 384 -161 22 -4 51 -9 65 -12 35 -8 226
-8 280 -1 76 11 181 37 255 65 83 30 305 143 305 155 0 4 5 8 11 8 6 0 25 11
43 25 18 14 35 25 37 25 3 0 5 -61 4 -136 0 -74 3 -138 8 -141 9 -5 301 -11
837 -16 l254 -2 1 595 c0 327 -1 601 -3 608 -3 9 -122 12 -551 12 l-547 0 1
-112z"/>
<path d="M2375 3836 c-128 -35 -197 -142 -170 -262 14 -64 39 -97 95 -127 41
-23 135 -57 153 -57 26 1 114 -65 118 -88 7 -39 4 -63 -12 -99 -40 -84 -167
-97 -275 -29 -62 38 -74 37 -103 -10 -18 -29 -18 -29 8 -52 24 -22 95 -60 131
-70 45 -13 164 -9 206 6 99 37 165 138 159 241 -7 113 -51 155 -226 216 -113
39 -148 68 -149 123 0 45 27 88 64 104 52 22 135 15 187 -15 25 -15 51 -27 57
-27 6 0 20 16 32 35 26 42 20 53 -45 85 -72 35 -160 45 -230 26z"/>
<path d="M3397 3844 c-2 -2 -21 -6 -43 -10 -21 -3 -67 -21 -101 -40 -89 -50
-151 -131 -179 -237 -12 -47 -16 -203 -5 -222 3 -5 7 -18 8 -29 5 -33 51 -114
84 -151 140 -154 406 -167 560 -27 87 77 127 171 128 297 1 75 0 86 -12 130
-6 22 -11 42 -12 45 -5 24 -44 88 -77 124 -37 43 -132 99 -188 112 -30 6 -158
13 -163 8z m132 -110 c38 -6 106 -46 133 -78 18 -22 49 -81 52 -100 1 -6 5
-16 8 -22 4 -6 6 -53 5 -105 -4 -107 -24 -164 -76 -218 -108 -110 -328 -98
-409 22 -48 71 -57 105 -57 207 1 77 5 105 24 148 26 58 95 126 139 136 96 24
99 24 181 10z"/>
<path d="M4279 3836 c-1 -1 -2 -180 -3 -398 -1 -311 1 -399 11 -402 7 -3 15
-1 18 4 3 5 16 6 28 1 33 -11 57 -2 58 22 1 12 2 87 2 167 l2 145 158 0 c86 0
157 2 158 5 6 31 3 83 -5 88 -5 3 -75 6 -155 7 -80 1 -149 3 -152 4 -3 0 -5
60 -5 131 l0 130 30 1 c17 0 102 1 189 0 l157 0 0 48 0 47 -245 0 c-135 0
-246 0 -246 0z"/>
<path d="M5095 3794 c0 -23 3 -45 6 -49 4 -3 61 -6 128 -6 l121 1 0 -350 c0
-304 2 -350 15 -351 8 0 29 -1 45 -1 17 0 37 1 45 1 12 1 14 42 14 279 0 152
0 310 0 350 l1 72 120 -1 c66 -1 123 0 125 3 5 5 9 53 6 78 -1 14 -39 16 -314
16 l-313 1 1 -43z"/>
<path d="M6030 3833 c0 -6 13 -50 28 -93 3 -8 6 -19 8 -25 1 -5 14 -48 29 -94
15 -46 28 -91 30 -100 2 -9 9 -29 15 -46 6 -16 13 -37 15 -45 3 -12 85 -275
114 -365 7 -25 39 -32 106 -26 8 1 30 56 39 101 1 3 4 10 7 15 3 6 41 119 85
252 43 134 82 243 86 243 3 0 18 -39 33 -87 14 -49 30 -97 35 -108 5 -11 32
-92 60 -180 28 -88 54 -167 57 -175 3 -8 7 -21 9 -29 4 -20 19 -32 40 -32 87
2 76 -10 117 124 21 67 56 181 78 252 22 72 43 137 46 145 3 8 7 20 9 27 1 6
14 49 29 95 15 46 29 90 31 98 2 8 6 25 10 38 6 21 4 23 -32 21 -56 -2 -91
-17 -97 -42 -3 -12 -19 -69 -37 -127 -17 -58 -33 -112 -35 -120 -2 -8 -13 -46
-25 -85 -12 -38 -32 -108 -45 -153 -24 -84 -34 -108 -36 -81 0 8 -2 21 -4 30
-3 14 -89 276 -102 309 -4 8 -7 18 -8 23 -2 4 -4 9 -5 12 -1 3 -3 8 -4 13 -12
56 -72 204 -84 211 -26 13 -70 10 -84 -6 -6 -8 -31 -74 -55 -146 -24 -73 -46
-139 -50 -147 -3 -8 -7 -19 -8 -25 -2 -5 -23 -69 -48 -142 -25 -72 -43 -134
-39 -137 3 -3 1 -6 -5 -6 -9 0 -18 32 -24 85 0 6 -5 16 -11 23 -6 6 -7 12 -4
12 4 0 2 9 -4 21 -6 11 -13 30 -16 42 -2 12 -18 69 -35 126 -17 58 -32 112
-34 120 -2 9 -8 30 -15 46 -6 17 -11 30 -10 30 5 0 -24 91 -31 99 -9 10 -129
18 -129 9z"/>
<path d="M7647 3671 c-37 -92 -67 -172 -67 -179 0 -7 -4 -12 -10 -12 -5 0 -9
-3 -8 -7 3 -8 -45 -133 -82 -218 -27 -62 -74 -189 -75 -200 -1 -15 28 -23 52
-14 13 5 23 4 25 -2 9 -26 48 34 79 119 30 82 36 92 59 93 14 0 93 1 175 1
l150 1 40 -101 c45 -115 53 -121 145 -113 11 1 14 44 3 55 -4 4 -73 172 -153
374 l-146 367 -61 1 -60 2 -66 -167z m156 -33 c14 -40 44 -120 66 -178 22 -58
41 -109 41 -115 0 -6 -53 -10 -140 -10 -77 0 -140 1 -140 1 0 2 14 37 94 249
13 33 27 69 31 80 5 11 7 26 6 33 -1 6 2 12 7 12 5 0 21 -33 35 -72z"/>
<path d="M8534 3832 c-6 -5 -10 -151 -10 -400 0 -372 1 -393 18 -389 10 3 18
2 18 -2 0 -6 20 -6 75 1 6 1 10 62 9 163 l-2 162 54 -1 c64 -2 58 3 183 -174
51 -73 102 -137 114 -143 20 -11 127 -19 127 -9 -1 5 -16 28 -45 65 -9 11 -33
43 -53 72 -118 166 -147 203 -157 203 -5 0 13 11 40 24 96 44 145 116 145 209
-1 100 -64 182 -159 207 -50 14 -341 23 -357 12z m323 -107 c37 -14 49 -25 63
-59 27 -60 15 -125 -31 -169 -30 -29 -88 -43 -169 -43 l-75 1 -1 140 c0 77 3
143 8 146 18 12 162 0 205 -16z"/>
<path d="M9500 3771 c-1 -91 -1 -537 0 -642 0 -84 1 -87 25 -91 13 -3 22 -1
19 3 -3 5 5 5 18 1 13 -4 37 -6 53 -5 17 2 41 3 55 3 14 0 54 0 90 0 76 1 71
1 156 -1 82 -2 83 0 75 86 -1 7 -69 10 -188 10 l-186 0 0 121 c0 67 3 126 6
131 3 5 70 8 149 8 l143 -1 5 26 c3 14 4 35 2 47 -4 21 -9 21 -150 22 -80 1
-148 4 -151 6 -6 7 -5 234 2 241 2 3 88 5 189 6 l183 0 0 47 -1 46 -247 1
-247 1 0 -66z"/>
</g>
</svg>
