<?xml version="1.0" encoding="utf-8"?>
<!-- Generator: Adobe Illustrator 25.0.1, SVG Export Plug-In . SVG Version: 6.00 Build 0)  -->
<svg version="1.1" id="Layer_1" xmlns="http://www.w3.org/2000/svg" xmlns:xlink="http://www.w3.org/1999/xlink" x="0px" y="0px"
	 viewBox="0 0 1056.6 798.9" style="enable-background:new 0 0 1056.6 798.9;" xml:space="preserve">
<style type="text/css">
	.st0{fill:#FFFFFF;}
	.st1{fill:#1B2F4A;}
</style>
<path class="st0" d="M908.2,379.7c-0.1-43.2-27.3-80.8-66.5-93.3c-15.2-4.9-31-5.6-46.9-4.9c-7,0.3-11,0.7-10.2-10
	c1.9-26.2,2.3-52.7,1.1-79C782,105.8,721.4,32.7,636,10.4c-3.9-1-7.8-1.9-11.7-2.6V6.1H133v788.6h696.9
	c44.4-6.7,78.1-46.2,78.3-92.5C908.6,594.7,908.5,487.2,908.2,379.7z"/>
<path class="st1" d="M788.8,379.7c-0.1-43.2-27.3-80.8-66.5-93.3c-15.2-4.9-31-5.6-46.9-4.9c-7,0.3-11,0.7-10.2-10
	c1.9-26.2,2.3-52.7,1.1-79c-3.7-86.7-64.3-159.8-149.7-182.1c-81-21.1-167.8,14.4-214.4,86.1c-37.3,57.2-32.3,120.2-29.3,185
	c-10.9,0-20.8-0.2-30.6,0c-51.6,1.4-92.8,42.2-93,93.7c-0.5,108.2-0.6,216.3,0,324.5c0.3,52.6,41.2,95.6,93.5,95.9
	c151.7,1,303.4,0.9,455.1,0c50.5-0.3,90.8-42.9,91-93.5C789.2,594.7,789.1,487.2,788.8,379.7L788.8,379.7z M518.5,541.9
	c-7.9,6-10.4,11.7-10.1,21c0.6,23.7,0.4,47.4,0.2,71.1c-0.4,27.3-15.9,43.8-40.3,43.3c-23.6-0.3-38.3-16.5-38.7-42.9
	c-0.2-13.9-0.4-27.6,0-41.5c0.7-24.1-0.1-44.4-21.8-63.8c-23.4-21.1-23.8-53.1-10-82.5c14.3-30.3,39.4-44.4,66.4-46.3
	c38.6,0.4,69.5,23.3,80.1,55C554.7,486.9,545.1,521.7,518.5,541.9L518.5,541.9z M573.4,281.8c-34.3-0.7-68.5-0.2-102.8-0.2
	c-34.9,0-69.9-0.7-104.8,0.3c-13.6,0.4-16.3-4.3-15.8-16.6c1-21.1,0.1-42.2,0.3-63.3c0.7-66,52.7-118.1,117.9-118.4
	c65.3-0.3,118.1,51.2,119.4,117.2c0.5,22.4-0.7,44.9,0.3,67.3C588.4,279.8,584,282,573.4,281.8L573.4,281.8z"/>
</svg>
