<?xml version="1.0" encoding="utf-8"?>
<!-- Generator: Adobe Illustrator 25.0.1, SVG Export Plug-In . SVG Version: 6.00 Build 0)  -->
<svg version="1.1" id="Layer_1" xmlns="http://www.w3.org/2000/svg" xmlns:xlink="http://www.w3.org/1999/xlink" x="0px" y="0px"
	 viewBox="0 0 1056.6 798.9" style="enable-background:new 0 0 1056.6 798.9;" xml:space="preserve">
<style type="text/css">
	.st0{fill:#FFFFFF;}
	.st1{fill:#1B2F4A;}
</style>
<path class="st0" d="M64.8,3.6v793.8h921.8C974.7,642.9,886,485,746.1,433.9c-1.2-28.2-2.6-27.6-2.6-55.7
	c50.8-39.4,83.6-100.9,83.6-170.2c0-92.9-58.9-172.1-141.4-202.2l-9.2-2.2H64.8z"/>
<circle class="st1" cx="491.6" cy="217.2" r="215.2"/>
<path class="st1" d="M623.7,462.3c-36.5,28.4-82.3,32.7-132.1,32.7s-95.6-4.3-132.1-32.7c-140.8,51-243.8,181-255.1,336.5h774.4
	C867.5,643.3,764.5,513.3,623.7,462.3z"/>
</svg>
