<?xml version="1.0" encoding="utf-8"?>
<!-- Generator: Adobe Illustrator 25.0.1, SVG Export Plug-In . SVG Version: 6.00 Build 0)  -->
<svg version="1.1" id="Layer_1" xmlns="http://www.w3.org/2000/svg" xmlns:xlink="http://www.w3.org/1999/xlink" x="0px" y="0px"
	 viewBox="0 0 1056.56 798.88" style="enable-background:new 0 0 1056.56 798.88;" xml:space="preserve">
<style type="text/css">
	.st0{fill:#FFFFFF;}
	.st1{fill:#1C2F4A;}
</style>
<path class="st0" d="M-23.69,4.46v794.7H997.54c7.71-8.24,12.13-35.84,12.92-50.42c0.75-14.02,0.12-28.12,0.12-42.83
	c26.64-6.4,46.01-19.62,46.23-48.31c0.58-78.37,0.61-156.78-0.07-235.15c-0.18-22.07-14.89-43.22-33.71-42.63
	c-29.97,0.91-35.13-17.76-40.98-39.17c-3.51-12.88-8.29-25.43-12.6-38.08c-24-70.65-46.57-141.8-72.5-211.73
	c-17.78-47.94-49.26-76.29-94.61-85.51L-23.69,4.46z"/>
<g>
	<path class="st1" d="M891.06,705.91c0,14.71,0.63,28.81-0.12,42.83c-1.63,30.58-19.25,48.13-49.91,48.92
		c-28.93,0.75-57.91,0.8-86.84-0.01c-32.01-0.91-48.66-18.87-49.03-51.1c-0.14-13.24-0.01-26.49-0.01-41.1
		c-156.51,0-310.82,0-468.42,0c0,14.09,0.27,27.9-0.05,41.73c-0.75,32.05-17.81,49.75-49.86,50.5c-28.93,0.68-57.92,0.82-86.84-0.05
		c-30.76-0.92-47.59-18.67-48.83-49.55c-0.24-6.34-0.64-12.77,0.01-19.05c1.62-15.51-1.31-25.18-19.55-30.09
		c-17.27-4.65-26.69-20.57-26.74-39.34c-0.27-79.08-0.56-158.18,0.1-237.27c0.22-26.57,17.46-44.23,43.97-44.12
		c15.69,0.05,20.3-7.02,24.43-19.67c25.09-77,50.73-153.82,76.25-230.69c2.43-7.34,5.15-14.6,7.98-21.8
		C189.9,24.22,221.7,2.45,308.88,2.45c111.56,0,223.16,1.5,334.71-0.56c66.94-1.22,111.3,28.17,133.85,88.94
		c25.94,69.91,48.51,141.09,72.5,211.73c4.31,12.66,9.1,25.19,12.59,38.08c5.85,21.43,11,40.08,40.95,39.17
		c18.82-0.57,33.53,20.57,33.71,42.63c0.65,78.37,0.64,156.76,0.07,235.15C937.09,686.29,917.71,699.53,891.06,705.91z
		 M777.22,376.45c-9.08-27.19-16.94-51.22-25.11-75.13c-19.78-57.89-39.4-115.86-59.7-173.57c-7.7-21.85-21.5-33.05-47.55-32.75
		c-116.44,1.36-232.91,1.05-349.37,0.18c-21.28-0.16-35.56,6.16-42.9,26.09c-10.69,29.04-21.75,57.98-31.45,87.36
		c-18.23,55.22-35.6,110.7-53.88,167.82C371.37,376.45,572.84,376.45,777.22,376.45z M167.53,624.33
		c44.83-0.23,83.78-39.38,83.66-84.07c-0.12-44.6-39.63-83.93-84.11-83.73c-44.6,0.19-83.71,39.62-83.54,84.16
		C83.72,585.47,122.94,624.54,167.53,624.33z M857.93,539.98c-0.33-45.07-39.21-83.67-84.07-83.47
		c-44.66,0.22-83.66,39.8-83.24,84.46c0.42,44.91,39.63,83.7,84.27,83.33C819.87,623.97,858.26,585.01,857.93,539.98z"/>
</g>
</svg>
