<svg id="Layer_1" data-name="Layer 1" xmlns="http://www.w3.org/2000/svg" viewBox="0 0 788 380.35"><defs><style>.cls-1{fill:#fff;}</style></defs><path class="cls-1" d="M778.74,199.36q-12.27-14.81-36-22.46a157.85,157.85,0,0,0-22.06-5.59q-11.49-2.07-20.31-4.22c-1.87-.45-3.59-.9-5.24-1.36l-49.9,49.9c3.17,1.32,6.48,2.55,10,3.65a181.3,181.3,0,0,0,21.19,5.2q12,2.25,19.82,4.21,14.71,3.54,19.81,7.46t5.11,11.57q0,9.83-11.09,14.33t-25.61,4.51a97.66,97.66,0,0,1-26.18-3.24c-28.8-8-56-32.6-56-32.6V296q14.13,7.06,35.81,12.36a193.28,193.28,0,0,0,46,5.3q26.68,0,45.82-5.69a107,107,0,0,0,33.25-16.09,66.67,66.67,0,0,0,20.6-23.64A63.37,63.37,0,0,0,791,238.7Q791,214.18,778.74,199.36Z" transform="translate(-3 -4.11)"/><path class="cls-1" d="M728.22,82.3a207.78,207.78,0,0,0-22.17-1.14q-24.33,0-43.66,5.88t-32.47,15.89A70.93,70.93,0,0,0,610,126.18a59.5,59.5,0,0,0-6.77,27.76q0,25.17,12.53,40.81Z" transform="translate(-3 -4.11)"/><rect class="cls-1" x="242.01" y="226.61" width="68.67" height="76.84"/><path class="cls-1" d="M504.19,151.78q2.94,7.07,3.52,18.25c.37,6.9.56,15.31.58,25.11h69.07v-31q0-23.55-4.61-38.16a69.84,69.84,0,0,0-13.83-25.22,52.86,52.86,0,0,0-20.6-14.71,72.93,72.93,0,0,0-27.47-4.9q-18,0-35.61,9.9t-37.37,28.35q-8.06-19-23.35-28.64T379,81.16a69.53,69.53,0,0,0-33.55,8q-14.91,8-31.78,22.37V87.24H245v107.9h68.67V151.39a120.64,120.64,0,0,1,15.69-9.22,37.29,37.29,0,0,1,16.49-3.92q11,0,17.16,3.24a19.72,19.72,0,0,1,9.13,10.29q2.94,7.07,3.63,18.35c.42,7,.63,15.33.67,25h69.07V151.39a105.81,105.81,0,0,1,16.68-9.71,37.48,37.48,0,0,1,15.5-3.43q11.18,0,17.36,3.24A19.72,19.72,0,0,1,504.19,151.78Z" transform="translate(-3 -4.11)"/><rect class="cls-1" x="373.46" y="226.61" width="69.06" height="76.84"/><rect class="cls-1" x="505.3" y="226.61" width="69.06" height="76.84"/><path class="cls-1" d="M85.63,150q12.47-17.27,37.18-17.27a73,73,0,0,1,14.13,1.67,54.41,54.41,0,0,1,13.34,4.22v56.5H219V4.11H150.28v92a174.6,174.6,0,0,0-25.8-11.28q-11.08-3.63-28.35-3.63A81.3,81.3,0,0,0,60,89.49a87.59,87.59,0,0,0-29,22.66A117.72,117.72,0,0,0,10.39,149Q3.44,168.77,3,195.14H73.26C73.66,176,77.76,160.93,85.63,150Z" transform="translate(-3 -4.11)"/><path class="cls-1" d="M219,307.56V230.72H150.28v16a63.48,63.48,0,0,1-16.87,9.62,50.86,50.86,0,0,1-18.25,3.53q-22.17,0-32.07-14.52a48.14,48.14,0,0,1-6.35-14.65H5.34c3.22,20.41,52.47,107.34,129.73,65.66,6.22-3.35,10.76-8.11,15.21-11.77v22.95Z" transform="translate(-3 -4.11)"/><polygon class="cls-1" points="280.4 379.81 287.88 379.81 287.88 359.19 308.06 359.19 308.06 353.34 287.88 353.34 287.88 337.05 311.55 337.05 311.55 331.19 280.4 331.19 280.4 379.81"/><path class="cls-1" d="M503.58,335.31h-3.75l-20,48.62h5.74a2.59,2.59,0,0,0,1.61-.53,2.9,2.9,0,0,0,.91-1.17L492.49,371h22.17l4.44,11.27a2.49,2.49,0,0,0,2.52,1.69h5.74l-20-48.61Zm0,30.51h0v0h-9L502,347c.25-.66.52-1.4.8-2.23s.51-1.74.77-2.72l0,.13h0a38.06,38.06,0,0,0,1.58,4.75l7.46,18.86Z" transform="translate(-3 -4.11)"/><path class="cls-1" d="M179.79,360.42A15.47,15.47,0,0,0,176,358a46.36,46.36,0,0,0-4.37-1.69c-1.49-.49-2.95-1-4.38-1.4a22.5,22.5,0,0,1-3.82-1.59,8.76,8.76,0,0,1-2.7-2.21,5,5,0,0,1-1-3.25,7,7,0,0,1,.59-2.83,6.23,6.23,0,0,1,1.69-2.27,8.09,8.09,0,0,1,2.79-1.52,12.13,12.13,0,0,1,3.86-.56,13,13,0,0,1,4,.56,15.67,15.67,0,0,1,2.89,1.24,22.16,22.16,0,0,1,2,1.26,2.66,2.66,0,0,0,1.44.55,1.58,1.58,0,0,0,1-.26,2.71,2.71,0,0,0,.74-.84l1.84-3.43a18.27,18.27,0,0,0-6.18-3.75,22.7,22.7,0,0,0-7.79-1.29,18.69,18.69,0,0,0-6.73,1.12,15.41,15.41,0,0,0-4.95,3,12.62,12.62,0,0,0-3.07,4.32,12.45,12.45,0,0,0-1,5,13.19,13.19,0,0,0,1,5.47,11,11,0,0,0,2.69,3.69,14.83,14.83,0,0,0,3.82,2.39,45.68,45.68,0,0,0,4.38,1.61l4.37,1.34a21,21,0,0,1,3.82,1.55,8.16,8.16,0,0,1,2.69,2.27,5.7,5.7,0,0,1,1,3.48,8.78,8.78,0,0,1-.67,3.46,7.36,7.36,0,0,1-1.91,2.66,8.66,8.66,0,0,1-3.07,1.69,13.45,13.45,0,0,1-4.13.6,13.84,13.84,0,0,1-4.81-.75,17.28,17.28,0,0,1-3.39-1.64c-.94-.6-1.74-1.15-2.38-1.64a3,3,0,0,0-1.7-.74,2,2,0,0,0-1,.26,2.7,2.7,0,0,0-.75.68l-2.14,3.46a18.37,18.37,0,0,0,3.17,2.61,22.12,22.12,0,0,0,3.8,2,24.15,24.15,0,0,0,4.3,1.29,23.49,23.49,0,0,0,4.7.46,20.24,20.24,0,0,0,7.2-1.2,15.55,15.55,0,0,0,5.33-3.29,14.3,14.3,0,0,0,3.31-4.91,15.85,15.85,0,0,0,1.14-6,11.4,11.4,0,0,0-1-5.11A11.24,11.24,0,0,0,179.79,360.42Z" transform="translate(-3 -4.11)"/><path class="cls-1" d="M249.92,341.76a23.07,23.07,0,0,0-7.88-5.15,26.86,26.86,0,0,0-10.18-1.84h0a27.35,27.35,0,0,0-10.14,1.82,22.75,22.75,0,0,0-13,13,28.5,28.5,0,0,0,0,20,23.48,23.48,0,0,0,5.11,7.86,22.89,22.89,0,0,0,7.87,5.13,27.15,27.15,0,0,0,10.14,1.83v0h0A27.25,27.25,0,0,0,242,382.62a22.65,22.65,0,0,0,13-13,28.8,28.8,0,0,0,0-20A23,23,0,0,0,249.92,341.76ZM248,367.41a16.58,16.58,0,0,1-3.48,5.85,14.87,14.87,0,0,1-5.46,3.67,19.52,19.52,0,0,1-7.17,1.27h0a19.32,19.32,0,0,1-7.14-1.27,15.28,15.28,0,0,1-5.49-3.67,16.52,16.52,0,0,1-3.49-5.85,25.48,25.48,0,0,1,0-15.58,16.33,16.33,0,0,1,3.49-5.86,15.55,15.55,0,0,1,5.49-3.69,18.92,18.92,0,0,1,7.14-1.29h0a19.07,19.07,0,0,1,7.17,1.29,15,15,0,0,1,5.46,3.69,16.45,16.45,0,0,1,3.48,5.86,25.48,25.48,0,0,1,0,15.58Z" transform="translate(-3 -4.11)"/><polygon class="cls-1" points="616.72 358.12 635.76 358.12 635.76 352.45 616.72 352.45 616.72 337.05 640.37 337.05 640.37 331.19 609.22 331.19 609.22 379.82 640.37 379.82 640.41 373.95 616.72 373.95 616.72 358.12"/><path class="cls-1" d="M572,362.73a18.28,18.28,0,0,0,5.08-2,14.27,14.27,0,0,0,3.8-3.07,12.16,12.16,0,0,0,2.36-4,14.76,14.76,0,0,0-.28-10.39,10.92,10.92,0,0,0-3.41-4.29,16.35,16.35,0,0,0-5.81-2.75,27.55,27.55,0,0,0-6.2-.9c-.71-.05-1.42-.06-2.18-.06H550.85v48.61h7.45V364h4.87a4.77,4.77,0,0,1,2.1.36,3.6,3.6,0,0,1,1.29,1.2l1,1.31h0L579,382.42a3.11,3.11,0,0,0,2.9,1.51h6.65L574.39,365A7.53,7.53,0,0,0,572,362.73Zm-4.46-4.13h0a18.77,18.77,0,0,1-2.43.13H558.3V341h7c.77,0,1.5,0,2.18.1a12,12,0,0,1,6.38,2,7.38,7.38,0,0,1,2.85,6.33,9.46,9.46,0,0,1-.73,3.77,7.94,7.94,0,0,1-2.21,2.95,10.2,10.2,0,0,1-3.65,1.92A14.68,14.68,0,0,1,567.52,358.6Z" transform="translate(-3 -4.11)"/><path class="cls-1" d="M457.17,335.8a2.17,2.17,0,0,0-.88,1.2l-9.94,32.54c-.32,1.26-.63,2.68-.91,4.23a36.71,36.71,0,0,0-1.11-4.23L433,337a2.65,2.65,0,0,0-.91-1.22,2.48,2.48,0,0,0-1.6-.49h-2.14a2.65,2.65,0,0,0-1.62.51,2.51,2.51,0,0,0-.91,1.2l-11.34,32.54a21,21,0,0,0-.61,2c-.18.75-.34,1.53-.5,2.34-.18-.81-.33-1.59-.48-2.34a19.74,19.74,0,0,0-.52-2L402.48,337a2.15,2.15,0,0,0-.88-1.24,2.8,2.8,0,0,0-1.64-.46h-6.24l15.68,48.62h6.69l12.4-36.06c.22-.7.47-1.57.73-2.6a17,17,0,0,0,.72,2.6l12.26,36.06h6.72l15.69-48.62h-5.8A2.73,2.73,0,0,0,457.17,335.8Z" transform="translate(-3 -4.11)"/><polygon class="cls-1" points="332.07 337.21 348.1 337.21 348.1 379.81 355.53 379.81 355.53 337.21 371.49 337.21 371.49 331.19 332.07 331.19 332.07 337.21"/></svg>